PathFileType	4	(X/Y/Z)	Run_500 02
DataRate	CameraRate	NumFrames	NumMarkers	Units	OrigDataRate	OrigDataStartFrame	OrigNumFrames
100	100	7	42	mm	100	63	128
Frame#	Time	LASI			RASI			LPSI			RPSI			RTH1			RTH2			RTH3			LTH1			LTH2			LTH3			RTB1			RTB2			RTB3			LTB1			LTB2			LTB3			RCAL			RTOE			RMT5			LCAL			LTOE			LMT5			LACR			RACR			CLAV			C7			RUA1			RUA2			RUA3			RLEL			RMEL			LUA1			LUA2			LUA3			LLEL			LMEL			RFAsuperior			RFAradius			RFAulna			LFAsuperior			LFAradius			LFAulna			
		X1	Y1	Z1	X2	Y2	Z2	X3	Y3	Z3	X4	Y4	Z4	X5	Y5	Z5	X6	Y6	Z6	X7	Y7	Z7	X8	Y8	Z8	X9	Y9	Z9	X10	Y10	Z10	X11	Y11	Z11	X12	Y12	Z12	X13	Y13	Z13	X14	Y14	Z14	X15	Y15	Z15	X16	Y16	Z16	X17	Y17	Z17	X18	Y18	Z18	X19	Y19	Z19	X20	Y20	Z20	X21	Y21	Z21	X22	Y22	Z22	X23	Y23	Z23	X24	Y24	Z24	X25	Y25	Z25	X26	Y26	Z26	X27	Y27	Z27	X28	Y28	Z28	X29	Y29	Z29	X30	Y30	Z30	X31	Y31	Z31	X32	Y32	Z32	X33	Y33	Z33	X34	Y34	Z34	X35	Y35	Z35	X36	Y36	Z36	X37	Y37	Z37	X38	Y38	Z38	X39	Y39	Z39	X40	Y40	Z40	X41	Y41	Z41	X42	Y42	Z42	

61	2.65	779.324294	932.669298	-440.826189	815.548753	957.566877	-202.194968	641.747517	1010.141141	-352.579966	644.1207900000001	1013.677657	-252.231152	839.8764169999999	757.119326	-119.495304	940.669724	723.781383	-135.884158	947.098685	618.77308	-160.182694	651.738756	755.322322	-464.379065	647.5115039999999	637.025032	-449.36006	538.876878	576.000388	-429.441257	1059.211359	445.751962	-233.355186	1041.676184	360.674504	-189.190389	1077.769983	261.556522	-261.68227	409.343799	417.513585	-360.181414	310.231498	443.097578	-409.715253	221.528789	370.87625	-342.351882	1007.685323	125.732076	-283.874988	1218.206096	196.868365	-315.158645	1202.281205	132.744639	-222.552025	118.950159	439.374657	-335.027257	50.84735	239.416568	-270.85955	6.847012	270.433983	-361.731714	848.391284	1427.136919	-447.746562	832.102333	1424.769664	-168.488266	910.523237	1342.32827	-286.959174	791.661617	1457.554312	-314.233361	729.413878	1399.749143	-82.57197600000001	655.856255	1389.512706	-137.61236	617.83768	1351.087441	-60.899566	544.297442	1335.421876	-44.194706	531.105669	1319.767276	-118.183041	834.183773	1327.644319	-560.487496	790.138554	1249.592637	-558.418816	858.792175	1238.958638	-614.768616	870.779319	1161.023994	-660.837136	845.5155600000001	1112.498362	-606.988261	578.679163	1228.077772	-13.267007	636.068669	1107.290912	-47.87295	570.695467	1086.654958	-36.570517	963.290798	1210.181075	-597.799118	1037.052083	1224.759095	-477.454502	1081.634315	1189.447153	-518.719025	
62	2.66	782.94213	929.324227	-441.119247	816.114769	953.686584	-200.951014	643.263857	1004.091961	-352.346131	645.560439	1006.179629	-252.590156	833.706545	743.571847	-119.612808	932.928816	705.206943	-134.906042	934.895436	600.655488	-161.354347	661.501498	746.7235030000001	-465.273137	660.229421	628.366187	-449.699001	552.804628	564.814246	-431.72032	1047.117956	427.171465	-232.95588	1027.93042	341.587784	-190.287119	1068.565182	243.645918	-261.671278	417.904401	416.196602	-359.317229	321.742125	450.797687	-410.168262	225.587767	392.554889	-340.754847	999.828309	110.668633	-289.381227	1211.333812	177.554386	-311.149169	1190.646276	110.476909	-220.886578	132.179114	471.964631	-337.786389	40.050111	284.75504	-267.530449	1.184657	317.070768	-360.102764	846.686654	1421.999133	-448.173636	832.646351	1419.413245	-168.109843	909.5172260000001	1338.017316	-286.878928	791.668346	1455.459289	-313.330152	730.626089	1391.816887	-80.00928999999999	656.1971579999999	1380.994866	-134.178849	621.050073	1340.312308	-56.655961	547.950152	1322.620698	-38.943808	533.209879	1307.972041	-112.943109	828.860863	1321.215852	-559.720919	783.2401139999999	1244.636669	-556.538334	851.284032	1231.487566	-613.374456	860.565026	1153.488785	-658.384527	833.702508	1106.472804	-604.042308	586.890522	1215.966686	-10.685692	647.054345	1097.944077	-48.990812	582.373381	1075.174785	-36.140142	956.025809	1197.291573	-595.691975	1030.466887	1205.871788	-478.298155	1074.459187	1169.486742	-519.210806	
63	2.67	787.312886	924.139833	-440.773187	816.719907	948.542491	-198.780164	645.317497	997.113335	-352.33191	647.203975	997.47069	-253.020231	828.796249	731.378887	-120.964944	925.988685	688.547608	-135.768441	923.131049	583.77322	-163.638232	671.154917	737.521074	-466.501038	673.135817	619.491123	-451.462809	567.285951	553.241271	-434.518198	1032.377782	407.200517	-232.973838	1008.019232	320.707429	-192.151925	1051.866208	223.234695	-262.775232	429.834811	413.818734	-359.460148	337.76921	457.282084	-411.300352	236.321873	412.328437	-339.205726	980.7918089999999	100.564922	-296.663728	1194.315547	146.941373	-306.510392	1163.958388	83.98951	-216.740722	153.981329	501.654455	-338.46755	38.42681	327.560976	-267.902777	4.205195	364.252967	-360.442913	843.346724	1416.145355	-448.34998	832.369785	1412.857905	-167.504328	908.300975	1332.898456	-286.945545	790.4361740000001	1451.936548	-312.02229	731.680873	1381.905439	-77.223219	655.999009	1370.51444	-129.336638	624.404776	1326.852335	-51.030167	552.417274	1306.726541	-31.811017	535.2677179999999	1293.326834	-105.679489	821.597029	1314.988373	-558.71546	774.385871	1240.192214	-554.562485	841.449644	1224.47514	-612.162566	847.731578	1145.875186	-656.3016	819.417996	1100.459148	-601.579717	596.692317	1201.461858	-6.601619	660.310969	1086.916373	-49.030536	596.2579919999999	1061.326191	-34.600462	946.284943	1183.116379	-594.4048320000001	1022.743686	1184.290695	-480.272603	1064.650741	1146.227104	-521.848559	
64	2.68	791.977899	917.422325	-439.717324	816.316795	941.9067690000001	-196.961871	647.651524	989.508662	-353.216097	647.717884	988.775091	-253.911608	823.939967	720.536594	-122.357558	919.546631	674.421736	-136.617592	912.745988	569.863824	-165.403825	680.302555	727.892527	-467.711264	686.0375759999999	610.3508409999999	-454.360846	582.477923	541.3291390000001	-437.974253	1017.407079	389.850876	-235.314661	987.46682	302.602166	-196.251306	1030.105072	205.210753	-268.210841	444.914706	410.61185	-361.622889	357.788105	463.549407	-413.105466	253.0736	429.61171	-338.222126	952.790651	97.120908	-306.60976	1168.338244	111.877844	-305.945394	1126.596223	61.114505	-214.458967	181.748966	527.869508	-336.809251	46.132038	365.8029	-271.83787	16.80785	409.120236	-363.198719	839.230239	1409.80868	-448.464082	831.70045	1405.460116	-166.592078	907.3535419999999	1327.012086	-287.372288	788.058418	1445.939176	-310.553207	732.85439	1370.268695	-74.265085	655.494975	1357.876263	-123.197972	628.0547800000001	1311.018956	-44.390865	557.911111	1288.224917	-23.321078	537.938192	1275.757317	-96.886	812.6234480000001	1308.493373	-557.556101	764.261546	1235.772123	-552.487545	829.988031	1217.787719	-611.438214	832.9300009999999	1138.275155	-654.613324	803.299452	1094.486726	-599.585517	607.811843	1184.874783	-1.238661	675.451429	1074.495599	-48.291671	612.41832	1045.506444	-32.082242	934.481583	1168.082592	-594.124184	1014.529485	1161.244016	-482.646096	1052.131993	1120.855324	-526.33356	
65	2.69	796.124852	909.682363	-437.697714	813.828498	934.668952	-196.233295	649.219473	981.445431	-355.535263	645.79105	981.374702	-255.779822	817.978404	712.186821	-122.502219	913.739326	665.718133	-135.757268	905.790857	562.197137	-164.417251	689.398432	718.3489520000001	-468.467016	699.01774	601.3332830000001	-457.818075	598.898194	529.1650079999999	-441.804792	1003.984932	379.637077	-239.967404	971.45903	293.214169	-202.471791	1004.767697	194.909392	-277.321849	463.415507	406.570806	-366.32428	381.566656	469.622969	-415.534506	275.132753	444.081133	-338.115962	917.284235	99.190876	-317.541206	1134.499131	84.01183899999999	-310.834109	1083.702428	48.576973	-216.402383	213.556559	549.8645330000001	-333.738537	62.464558	398.527471	-277.886832	38.866088	448.557133	-367.915899	835.138863	1403.556599	-448.952996	831.293623	1397.884797	-165.325476	906.9578320000001	1320.633098	-288.369856	784.706131	1437.56802	-308.962091	734.568277	1357.227568	-71.00232800000001	655.2491240000001	1343.030599	-115.921934	632.615993	1292.981966	-37.076692	564.794626	1267.623059	-14.000136	542.04057	1255.284741	-87.06681399999999	802.453818	1301.456158	-556.313164	753.452524	1230.916062	-550.4868310000001	817.579825	1210.917594	-611.239212	816.456507	1130.795151	-653.150052	785.542909	1088.67173	-597.797264	620.289982	1166.465274	5.0165	692.119677	1060.956376	-47.118254	630.953028	1028.266891	-28.960636	920.908966	1152.521005	-594.9181160000001	1005.265653	1137.355224	-485.514431	1036.729777	1094.670754	-532.357806	
66	2.7	798.863299	901.713523	-434.395887	808.928972	928.916273	-195.611584	648.896912	973.255552	-359.241485	641.207405	975.804694	-258.939795	811.077394	708.103551	-121.150339	908.609925	664.84235	-133.139226	902.526382	561.818925	-160.306185	699.147726	709.895321	-468.558646	712.392885	593.440877	-461.109499	617.198211	517.269647	-445.443135	991.665364	376.724843	-244.08088	959.60235	293.653225	-208.434005	976.2565489999999	192.847247	-285.191597	486.147584	401.616043	-372.822913	409.233137	474.230732	-418.528701	301.872197	455.467599	-338.968277	875.957628	103.342586	-325.746775	1094.437358	70.607742	-317.635173	1038.999687	46.419412	-220.68534	248.769512	566.781869	-331.096381	86.165279	425.269135	-284.522991	68.82767200000001	480.167782	-373.782393	831.593299	1398.025454	-450.190024	831.392665	1391.003251	-163.876546	906.95273	1314.345412	-289.972188	780.875644	1428.68236	-306.962526	737.206634	1343.149836	-67.410295	655.9437370000001	1326.296016	-107.734614	638.908874	1273.079328	-29.464088	573.674574	1245.35548	-4.263903	548.3285550000001	1232.320494	-76.498953	791.955016	1294.233202	-555.0928720000001	742.278902	1225.503936	-548.567417	804.523736	1203.68	-611.28327	798.347254	1123.725164	-651.598629	766.256518	1083.453892	-595.768239	634.672579	1146.558168	11.499938	710.22531	1046.567338	-45.867142	651.761975	1010.257595	-25.640969	905.613725	1136.944265	-596.6091269999999	993.9990340000001	1113.211687	-489.442357	1018.211076	1069.061877	-539.685383	
67	2.71	799.731186	894.589232	-429.902113	802.348134	926.758681	-193.186915	646.532466	965.751218	-363.590076	635.15009	971.745285	-263.162306	804.260924	708.54153	-119.185025	902.952668	669.346252	-130.089352	899.463396	564.9177550000001	-155.495411	709.640235	703.329653	-468.191704	726.826236	587.6411419999999	-463.576938	638.245696	506.398109	-448.446201	978.056977	376.011073	-244.325365	945.426686	297.967937	-211.318801	944.478622	194.147377	-287.617129	513.892149	396.117727	-378.969137	440.983737	475.850197	-421.918867	332.685573	463.592288	-340.723824	831.161013	106.54942	-328.543446	1050.548238	69.008932	-321.278956	993.88791	48.80608	-223.322908	287.003656	578.331541	-330.616857	116.088938	445.328644	-290.991432	104.496123	502.373891	-380.283343	828.862521	1393.542044	-452.241841	831.422367	1385.586092	-162.759785	906.820844	1308.907891	-291.959551	777.670083	1421.937492	-304.496139	740.858477	1328.621347	-63.867964	657.971738	1308.450046	-99.15823399999999	647.580376	1252.302897	-22.035759	585.339294	1221.962701	5.545023	557.3177460000001	1207.783017	-65.28729800000001	782.1895040000001	1287.80276	-554.150099	731.004394	1220.183904	-546.336848	790.803298	1196.676705	-611.1614980000001	778.7474999999999	1117.620674	-649.635582	745.802577	1079.58036	-593.053816	651.9156410000001	1125.846735	17.321331	730.127639	1031.772398	-44.851617	674.722863	992.2438969999999	-22.395085	888.508447	1122.239004	-598.683006	980.50552	1089.863812	-494.649999	996.453966	1045.288905	-547.821396	
